<mxfile host="app.diagrams.net" modified="2024-03-30T06:45:47.307Z" agent="Mozilla/5.0 (Windows NT 10.0; Win64; x64) AppleWebKit/537.36 (KHTML, like Gecko) Chrome/123.0.0.0 Safari/537.36 Edg/123.0.0.0" etag="kL9LQc9Y1vyFJ1OvlEuZ" version="24.2.1" type="github">
  <diagram name="第 1 页" id="P7pqEGnPUfQCsjm25Q79">
    <mxGraphModel dx="792" dy="449" grid="1" gridSize="10" guides="1" tooltips="1" connect="1" arrows="1" fold="1" page="1" pageScale="1" pageWidth="1169" pageHeight="1654" math="0" shadow="0">
      <root>
        <mxCell id="0" />
        <mxCell id="1" parent="0" />
        <mxCell id="kne6DeHZvwvVoVqGHP-4-1" value="遥控器" style="whiteSpace=wrap;html=1;aspect=fixed;" parent="1" vertex="1">
          <mxGeometry x="270" y="300" width="80" height="80" as="geometry" />
        </mxCell>
        <mxCell id="NinFL8VWbI65WirlYmD8-3" value="" style="edgeStyle=orthogonalEdgeStyle;rounded=0;orthogonalLoop=1;jettySize=auto;html=1;shape=link;width=5;" parent="1" source="kne6DeHZvwvVoVqGHP-4-4" target="kne6DeHZvwvVoVqGHP-4-15" edge="1">
          <mxGeometry relative="1" as="geometry" />
        </mxCell>
        <mxCell id="NinFL8VWbI65WirlYmD8-4" value="I2C" style="edgeLabel;html=1;align=center;verticalAlign=middle;resizable=0;points=[];" parent="NinFL8VWbI65WirlYmD8-3" vertex="1" connectable="0">
          <mxGeometry x="0.3333" y="2" relative="1" as="geometry">
            <mxPoint x="2" y="7" as="offset" />
          </mxGeometry>
        </mxCell>
        <mxCell id="kne6DeHZvwvVoVqGHP-4-4" value="主控" style="whiteSpace=wrap;html=1;aspect=fixed;" parent="1" vertex="1">
          <mxGeometry x="450" y="190" width="80" height="80" as="geometry" />
        </mxCell>
        <mxCell id="kne6DeHZvwvVoVqGHP-4-5" value="驱动器" style="whiteSpace=wrap;html=1;aspect=fixed;" parent="1" vertex="1">
          <mxGeometry x="610" y="300" width="80" height="80" as="geometry" />
        </mxCell>
        <mxCell id="kne6DeHZvwvVoVqGHP-4-6" value="" style="curved=1;endArrow=classic;html=1;rounded=0;exitX=0;exitY=0.75;exitDx=0;exitDy=0;entryX=1;entryY=0.75;entryDx=0;entryDy=0;" parent="1" source="kne6DeHZvwvVoVqGHP-4-5" target="kne6DeHZvwvVoVqGHP-4-1" edge="1">
          <mxGeometry width="50" height="50" relative="1" as="geometry">
            <mxPoint x="500" y="340" as="sourcePoint" />
            <mxPoint x="420" y="310" as="targetPoint" />
            <Array as="points">
              <mxPoint x="480" y="360" />
            </Array>
          </mxGeometry>
        </mxCell>
        <mxCell id="kne6DeHZvwvVoVqGHP-4-8" value="RS232" style="edgeLabel;html=1;align=center;verticalAlign=middle;resizable=0;points=[];" parent="kne6DeHZvwvVoVqGHP-4-6" vertex="1" connectable="0">
          <mxGeometry x="0.0354" y="1" relative="1" as="geometry">
            <mxPoint x="15" as="offset" />
          </mxGeometry>
        </mxCell>
        <mxCell id="kne6DeHZvwvVoVqGHP-4-9" value="" style="curved=1;endArrow=classic;html=1;rounded=0;exitX=0.868;exitY=-0.02;exitDx=0;exitDy=0;entryX=0;entryY=0.75;entryDx=0;entryDy=0;exitPerimeter=0;" parent="1" source="kne6DeHZvwvVoVqGHP-4-1" target="kne6DeHZvwvVoVqGHP-4-4" edge="1">
          <mxGeometry width="50" height="50" relative="1" as="geometry">
            <mxPoint x="540" y="310" as="sourcePoint" />
            <mxPoint x="590" y="260" as="targetPoint" />
            <Array as="points">
              <mxPoint x="380" y="260" />
            </Array>
          </mxGeometry>
        </mxCell>
        <mxCell id="kne6DeHZvwvVoVqGHP-4-10" value="RS232" style="edgeLabel;html=1;align=center;verticalAlign=middle;resizable=0;points=[];" parent="kne6DeHZvwvVoVqGHP-4-9" vertex="1" connectable="0">
          <mxGeometry x="-0.0499" y="2" relative="1" as="geometry">
            <mxPoint x="6" y="3" as="offset" />
          </mxGeometry>
        </mxCell>
        <mxCell id="kne6DeHZvwvVoVqGHP-4-11" value="" style="curved=1;endArrow=classic;html=1;rounded=0;exitX=1;exitY=0.75;exitDx=0;exitDy=0;entryX=0.5;entryY=0;entryDx=0;entryDy=0;" parent="1" source="kne6DeHZvwvVoVqGHP-4-4" target="kne6DeHZvwvVoVqGHP-4-5" edge="1">
          <mxGeometry width="50" height="50" relative="1" as="geometry">
            <mxPoint x="530" y="255" as="sourcePoint" />
            <mxPoint x="580" y="205" as="targetPoint" />
            <Array as="points">
              <mxPoint x="610" y="250" />
            </Array>
          </mxGeometry>
        </mxCell>
        <mxCell id="kne6DeHZvwvVoVqGHP-4-12" value="RS232" style="edgeLabel;html=1;align=center;verticalAlign=middle;resizable=0;points=[];" parent="kne6DeHZvwvVoVqGHP-4-11" vertex="1" connectable="0">
          <mxGeometry x="-0.2498" y="-8" relative="1" as="geometry">
            <mxPoint as="offset" />
          </mxGeometry>
        </mxCell>
        <mxCell id="NinFL8VWbI65WirlYmD8-5" style="edgeStyle=orthogonalEdgeStyle;rounded=0;orthogonalLoop=1;jettySize=auto;html=1;entryX=0;entryY=0.25;entryDx=0;entryDy=0;shape=link;" parent="1" source="kne6DeHZvwvVoVqGHP-4-13" target="kne6DeHZvwvVoVqGHP-4-4" edge="1">
          <mxGeometry relative="1" as="geometry">
            <mxPoint x="440" y="210" as="targetPoint" />
            <Array as="points">
              <mxPoint x="405" y="210" />
            </Array>
          </mxGeometry>
        </mxCell>
        <mxCell id="NinFL8VWbI65WirlYmD8-6" value="UART" style="edgeLabel;html=1;align=center;verticalAlign=middle;resizable=0;points=[];" parent="NinFL8VWbI65WirlYmD8-5" vertex="1" connectable="0">
          <mxGeometry x="-0.5678" relative="1" as="geometry">
            <mxPoint as="offset" />
          </mxGeometry>
        </mxCell>
        <mxCell id="kne6DeHZvwvVoVqGHP-4-13" value="超声波" style="whiteSpace=wrap;html=1;aspect=fixed;" parent="1" vertex="1">
          <mxGeometry x="380" y="100" width="50" height="50" as="geometry" />
        </mxCell>
        <mxCell id="kne6DeHZvwvVoVqGHP-4-15" value="GS" style="whiteSpace=wrap;html=1;aspect=fixed;" parent="1" vertex="1">
          <mxGeometry x="465" y="100" width="50" height="50" as="geometry" />
        </mxCell>
        <mxCell id="kne6DeHZvwvVoVqGHP-4-16" value="TOF" style="whiteSpace=wrap;html=1;aspect=fixed;" parent="1" vertex="1">
          <mxGeometry x="550" y="100" width="50" height="50" as="geometry" />
        </mxCell>
        <mxCell id="NinFL8VWbI65WirlYmD8-7" style="edgeStyle=orthogonalEdgeStyle;rounded=0;orthogonalLoop=1;jettySize=auto;html=1;exitX=0.5;exitY=1;exitDx=0;exitDy=0;entryX=1.011;entryY=0.21;entryDx=0;entryDy=0;entryPerimeter=0;shape=link;" parent="1" source="kne6DeHZvwvVoVqGHP-4-16" target="kne6DeHZvwvVoVqGHP-4-4" edge="1">
          <mxGeometry relative="1" as="geometry" />
        </mxCell>
        <mxCell id="NinFL8VWbI65WirlYmD8-8" value="UART" style="edgeLabel;html=1;align=center;verticalAlign=middle;resizable=0;points=[];" parent="NinFL8VWbI65WirlYmD8-7" vertex="1" connectable="0">
          <mxGeometry x="-0.6117" y="1" relative="1" as="geometry">
            <mxPoint as="offset" />
          </mxGeometry>
        </mxCell>
      </root>
    </mxGraphModel>
  </diagram>
</mxfile>
